# xmcd CD database file
#
# Track frame offsets:
#	150
#	21697
#	46547
#	63120
#	83472
#	103067
#	120170
#	137275
#	150022
#	175242
#	192462
#
# Disc length: 2806 seconds
#
# Revision: 5
# Processed by: cddbd v1.5.1PL0 Copyright (c) Steve Scherf et al.
# Submitted via: CDex 1.51
#
DISCID=760af40b
DTITLE=kuiksuup - deguschtation 2005
DYEAR=2005
DGENRE=Blues
TTITLE0=legoburg
TTITLE1=troim am tag
TTITLE2=frei sii
TTITLE3=nimms noed so tragisch
TTITLE4=gang
TTITLE5=kontur
TTITLE6=wasserfall
TTITLE7=de saenger
TTITLE8=raegemorge
TTITLE9=schoene tag
TTITLE10=wulchestuel
EXTD=YEAR: 2005
EXTT0=
EXTT1=
EXTT2=
EXTT3=
EXTT4=
EXTT5=
EXTT6=
EXTT7=
EXTT8=
EXTT9=
EXTT10=
PLAYORDER=
